<svg width="16" height="16" viewBox="0 0 16 16" fill="none" xmlns="http://www.w3.org/2000/svg">
<path d="M13.6594 2.34038C10.5389 -0.780136 5.4612 -0.780444 2.34038 2.34038C-0.780447 5.46121 -0.78014 10.5386 2.34038 13.6595C5.46089 16.7803 10.5386 16.7803 13.6594 13.6595C16.78 10.5386 16.78 5.4609 13.6594 2.34038ZM11.1561 11.1561C10.9157 11.3966 10.526 11.3966 10.2856 11.1561L7.99991 8.87047L5.60558 11.2648C5.36516 11.5052 4.97544 11.5052 4.73502 11.2648C4.4946 11.0244 4.4946 10.6347 4.73502 10.3943L7.12936 7.99992L4.84369 5.71425C4.60327 5.47383 4.60327 5.0838 4.84369 4.84369C5.08411 4.60327 5.47382 4.60327 5.71424 4.84369L7.99991 7.12936L10.1766 4.95266C10.417 4.71224 10.8067 4.71224 11.0472 4.95266C11.2876 5.19308 11.2876 5.5828 11.0472 5.82322L8.87047 7.99992L11.1561 10.2856C11.3966 10.526 11.3966 10.9157 11.1561 11.1561Z" fill="#D10000"/>
</svg>
